<svg width="30" height="30" viewBox="0 0 30 30" fill="none" xmlns="http://www.w3.org/2000/svg">
<path d="M18.1743 8.98594L25.0125 2.0625L25.0556 2.01375C25.1409 1.91532 25.2778 1.75688 25.424 1.83657C25.6415 1.95563 25.5787 2.18532 25.4887 2.33625C24.675 3.70125 24.6318 6.9075 27.7546 7.52344C27.8887 7.55438 28.0134 7.78219 27.8062 7.98938C26.8218 8.97375 25.02 12.1847 28.0546 14.6184C28.1615 14.6775 28.2853 14.8359 27.9206 15.0019L27.8071 15.0488C27.0693 15.3478 24.1228 16.5394 25.154 21.2888L19.229 15.3638C19.8618 14.7947 20.5396 12.9244 18.194 9.99844C17.7337 9.42469 18.1734 8.985 18.1734 8.985L18.1743 8.98594ZM9.13121 18.0281L2.20964 24.8663C2.1944 24.882 2.17812 24.8967 2.16089 24.9103C2.06246 24.9947 1.90402 25.1325 1.98464 25.2788C2.10277 25.4963 2.33246 25.4334 2.48433 25.3434C3.84839 24.5288 7.05464 24.4856 7.67152 27.6084C7.70246 27.7434 7.93027 27.8672 8.13652 27.6609C9.12089 26.6766 12.3318 24.8747 14.7656 27.9094C14.8246 28.0163 14.9831 28.1391 15.15 27.7744L15.1968 27.6619C15.495 26.9231 16.6875 23.9775 21.4368 25.0088L15.5118 19.0838C14.9418 19.7166 13.0715 20.3934 10.1465 18.0488C9.57183 17.5875 9.13214 18.0281 9.13214 18.0281H9.13121Z" fill="#A56953"/>
<path d="M21.1396 16.9434C21.0618 16.2872 20.7609 15.6122 20.1309 14.9822L16.3809 11.2322C16.0809 10.9322 15.7705 11.0569 15.9055 11.7103L16.1952 14.34C15.8015 14.6653 14.9174 15.4528 14.5274 16.0088L11.8246 15.7903C11.1505 15.7181 11.0165 16.0181 11.3062 16.3088L11.8546 16.8497C12.7134 17.6934 14.2527 19.2075 15.0562 20.0578C15.4434 20.4459 16.169 20.8978 17.0446 21.0169C17.5462 21.5831 18.3327 22.4231 19.5102 23.6006C22.3162 26.4066 23.7712 25.0688 24.569 24.3347L24.6477 24.2634C26.1702 22.7409 25.1652 21.0103 23.7046 19.4053C22.9452 18.5709 21.9337 17.6288 21.1396 16.9434Z" fill="#6D4534"/>
<path d="M17.8735 19.4156C17.4535 18.9966 17.4797 17.955 17.7544 17.6813C18.106 17.3288 19.2253 17.4319 19.5413 17.7478C19.7428 17.9503 19.7691 18.2447 19.0444 18.9703C18.3188 19.695 18.0188 19.5609 17.8725 19.4156H17.8735Z" fill="#FF8687"/>
<path d="M18.2812 16.875C18.4056 16.875 18.5248 16.8256 18.6127 16.7377C18.7006 16.6498 18.75 16.5306 18.75 16.4062C18.75 16.2819 18.7006 16.1627 18.6127 16.0748C18.5248 15.9869 18.4056 15.9375 18.2812 15.9375C18.1569 15.9375 18.0377 15.9869 17.9498 16.0748C17.8619 16.1627 17.8125 16.2819 17.8125 16.4062C17.8125 16.5306 17.8619 16.6498 17.9498 16.7377C18.0377 16.8256 18.1569 16.875 18.2812 16.875ZM16.4062 18.75C16.5306 18.75 16.6498 18.7006 16.7377 18.6127C16.8256 18.5248 16.875 18.4056 16.875 18.2812C16.875 18.1569 16.8256 18.0377 16.7377 17.9498C16.6498 17.8619 16.5306 17.8125 16.4062 17.8125C16.2819 17.8125 16.1627 17.8619 16.0748 17.9498C15.9869 18.0377 15.9375 18.1569 15.9375 18.2812C15.9375 18.4056 15.9869 18.5248 16.0748 18.6127C16.1627 18.7006 16.2819 18.75 16.4062 18.75Z" fill="#1C1C1C"/>
</svg>
