<svg width="30" height="30" viewBox="0 0 30 30" fill="none" xmlns="http://www.w3.org/2000/svg">
<g clip-path="url(#clip0_256_317)">
<path d="M3.22097 23.1083C3.22097 23.1083 6.09359 18.4679 10.513 17.584C10.513 17.584 14.2695 20.4566 16.0373 18.6889L14.4905 17.1421C14.4905 17.1421 15.8163 17.584 16.7002 16.7001C17.5841 15.8163 17.1421 14.4904 17.1421 14.4904L18.6889 16.0372C20.4567 14.2695 17.5841 10.513 17.5841 10.513C18.468 6.09354 23.1083 3.22092 23.1083 3.22092C22.2245 5.87257 25.0971 9.18714 25.0971 9.18714C21.5616 12.7227 24.4342 15.5953 24.4342 15.5953C19.1309 19.1308 22.4454 22.4454 22.4454 22.4454C22.4454 22.4454 19.1309 19.1308 15.5953 24.4341C15.5953 24.4341 12.7227 21.5615 9.18718 25.097C9.18718 25.097 5.87262 22.2244 3.22097 23.1083Z" fill="#634F45"/>
</g>
<defs>
<clipPath id="clip0_256_317">
<rect width="30" height="30" fill="white"/>
</clipPath>
</defs>
</svg>
