<svg width="30" height="30" viewBox="0 0 30 30" fill="none" xmlns="http://www.w3.org/2000/svg">
<path d="M22.0712 6.63C18.1662 2.78875 11.835 2.78875 7.92999 6.63C7.00285 7.53579 6.26613 8.61779 5.76314 9.81239C5.26015 11.007 5.00104 12.2901 5.00104 13.5862C5.00104 14.8824 5.26015 16.1655 5.76314 17.3601C6.26613 18.5547 7.00285 19.6367 7.92999 20.5425L15 27.4987L22.0712 20.5425C22.9984 19.6367 23.7351 18.5547 24.2381 17.3601C24.7411 16.1655 25.0002 14.8824 25.0002 13.5862C25.0002 12.2901 24.7411 11.007 24.2381 9.81239C23.7351 8.61779 22.9984 7.53579 22.0712 6.63ZM15 16.8737C14.165 16.8737 13.3812 16.5487 12.79 15.9587C12.2047 15.3722 11.876 14.5774 11.876 13.7487C11.876 12.9201 12.2047 12.1253 12.79 11.5387C13.38 10.9487 14.165 10.6237 15 10.6237C15.835 10.6237 16.62 10.9487 17.21 11.5387C17.7953 12.1253 18.124 12.9201 18.124 13.7487C18.124 14.5774 17.7953 15.3722 17.21 15.9587C16.62 16.5487 15.835 16.8737 15 16.8737Z" fill="#634F45"/>
</svg>
