<svg width="30" height="30" viewBox="0 0 30 30" fill="none" xmlns="http://www.w3.org/2000/svg">
<path d="M27.0621 25.7812C26.9798 25.9238 26.8614 26.0422 26.7189 26.1245C26.5763 26.2067 26.4146 26.25 26.25 26.25H3.75002C3.58553 26.2498 3.42399 26.2064 3.2816 26.124C3.13922 26.0417 3.02101 25.9233 2.93884 25.7808C2.85667 25.6383 2.81343 25.4767 2.81348 25.3123C2.81352 25.1478 2.85684 24.9862 2.93908 24.8438C4.72384 21.7582 7.47423 19.5457 10.684 18.4969C9.0963 17.5517 7.86276 16.1115 7.17281 14.3974C6.48286 12.6833 6.37465 10.7902 6.86479 9.00862C7.35493 7.22708 8.41633 5.65569 9.88598 4.53577C11.3556 3.41585 13.1523 2.80931 15 2.80931C16.8477 2.80931 18.6444 3.41585 20.114 4.53577C21.5837 5.65569 22.6451 7.22708 23.1352 9.00862C23.6254 10.7902 23.5172 12.6833 22.8272 14.3974C22.1373 16.1115 20.9037 17.5517 19.316 18.4969C22.5258 19.5457 25.2762 21.7582 27.061 24.8438C27.1434 24.9862 27.1869 25.1478 27.1871 25.3123C27.1873 25.4769 27.1442 25.6386 27.0621 25.7812Z" fill="#634F45"/>
</svg>
