<svg width="30" height="30" viewBox="0 0 30 30" fill="none" xmlns="http://www.w3.org/2000/svg">
<path d="M19.6961 17.6325L19.1273 18.1987C19.1273 18.1987 17.7736 19.5437 14.0798 15.8712C10.3861 12.1987 11.7398 10.8537 11.7398 10.8537L12.0973 10.4962C12.9811 9.61872 13.0648 8.20872 12.2936 7.17872L10.7186 5.07497C9.76357 3.79997 7.91982 3.63122 6.82607 4.71872L4.86357 6.66872C4.32232 7.20872 3.95982 7.90622 4.00357 8.68122C4.11607 10.665 5.01357 14.9312 10.0186 19.9087C15.3273 25.1862 20.3086 25.3962 22.3448 25.2062C22.9898 25.1462 23.5498 24.8187 24.0011 24.3687L25.7761 22.6037C26.9761 21.4125 26.6386 19.3687 25.1036 18.535L22.7161 17.2362C21.7086 16.69 20.4836 16.85 19.6961 17.6325Z" fill="#634F45"/>
</svg>
