<?xml version="1.0" encoding="utf-8"?>
<!-- Generator: Adobe Illustrator 16.0.0, SVG Export Plug-In . SVG Version: 6.00 Build 0)  -->
<!DOCTYPE svg PUBLIC "-//W3C//DTD SVG 1.1//EN" "http://www.w3.org/Graphics/SVG/1.1/DTD/svg11.dtd">
<svg version="1.1" xmlns="http://www.w3.org/2000/svg" xmlns:xlink="http://www.w3.org/1999/xlink" x="0px" y="0px"
	 width="2438.611px" height="2438.611px" viewBox="0 0 2438.611 2438.611" enable-background="new 0 0 2438.611 2438.611"
	 xml:space="preserve">
<g id="背景_xA0_影像_1_" display="none">
</g>
<g id="圖層_5" display="none">
	<rect display="inline" fill-rule="evenodd" clip-rule="evenodd" fill="#8C8C8C" width="2438.611" height="2438.611"/>
</g>
<g id="圖層_1_xA0_影像_3_">
	<path fill-rule="evenodd" clip-rule="evenodd" fill="#D2D2D2" d="M1528.057,2255.129c-8.971-0.411-15.333-7.986-20.926-15.858
		c-7.669-10.798-12.524-7.78-23.089-1.409c-12.734,7.68-30.975,13.794-44.898,5.795c-16.286-9.356-16.271-31.392-16.119-47.8
		c0.095-10.296,1.293-21.063,0.364-31.322c-3.678-40.642-0.631-78.486-22.783-114.473c-11.468-18.633-25.59-35.455-40.746-51.094
		c-22.259-22.969-41.545-48.551-63.904-71.336c-15.792-16.094-32.529-31.318-50.201-45.393
		c-15.948-12.701-29.563-27.748-42.918-42.938c-7.681-8.734-12.729-19.719-17.139-30.428
		c-13.533-32.855-25.958-66.193-33.377-101.045c-3.321-15.596-5.262-31.545-5.639-47.566c-0.2-8.504-4.006-15.836-7.762-22.885
		c-7.065-13.262-15.937-25.123-28.533-34.127c-16.45-11.758-33.166-23.408-44.774-40.598
		c-11.381-16.855-16.465-35.037-12.851-55.471c2.781-15.723,4.734-31.586,7.229-47.361c3.101-19.611,8.668-38.797,14.879-57.422
		c7.176-21.514,8.326-43.244,9-65.203c1-32.518,4.318-64.682,9.873-96.744c3.899-22.503,6.429-45.367,13.528-67.058
		c8.208-25.084,15.363-50.618,25.051-75.095c8.931-22.563,21.037-43.929,32.537-65.396c12.219-22.807,25.363-45.117,38.116-67.636
		c14.392-25.415,30.353-49.74,47.978-73.093c14.947-19.807,28.525-40.661,42.369-61.279c7.793-11.605,16.153-22.745,24.838-33.674
		c11.682-14.701,21.55-30.773,33.133-45.486c26.11-33.162,48.21-69.105,73.008-103.129c26.116-35.832,53.69-70.619,81.23-105.385
		c10.048-12.685,21.608-24.092,31.019-37.445c50.567-71.758,113.423-138.456,186.209-188.046
		c20.539-13.993,42.616-25.689,65.923-34.379c25.063-9.344,46.77-19.19,66.385-37.911c10.547-10.065,16.021-24.047,25.948-34.587
		c8.862-9.407,37.286-31.269,51.233-26.604c13.016,4.363,25.285,20.735,35.936,29.338c14.478,11.694,29.358,22.937,45.204,32.728
		c13.558,8.377,27.848,15.818,43.022,20.814c15.262,5.024,30.077,4.414,45.728,6.787c18.74,2.842,34.154,9.229,42.111,27.839
		c5.835,13.649,17.218,21.326,29.798,28.118c12.792,6.908,22.402,17.385,28.271,30.792c3.67,8.379,1.752,14.962-6.15,19.585
		c-35.774,20.927-79.19,42.903-94.931,84.096c-19.296,50.5,5.531,106.783,2.737,158.639
		c-5.323,98.805-61.971,165.476-103.405,250.62c-22.36,45.949-29.15,98.954-39.617,148.512
		c-25.461,120.551-47.376,241.814-71.276,362.678c-27.944,141.313-78.828,289.598-202.889,374.794
		c-19.129,13.137-32.489,39.49-42.697,59.896c-11.602,23.189-21.643,46.924-29.854,71.525
		c-12.806,38.365-23.678,77.205-29.29,117.303c-3.174,22.674-8.557,44.879-12.639,67.35c-2.039,11.223-3.882,22.529-4.883,33.879
		c-0.866,9.814,0.488,19.512,2.31,29.389c4.355,23.615,11.243,46.868,11.367,71.21c0.121,23.768-25.591,36.055-44.959,43.54
		C1533.222,2254.808,1530.539,2255.243,1528.057,2255.129z"/>
</g>
<g id="圖層_1_xA0_影像_1_">
	<path display="none" fill-rule="evenodd" clip-rule="evenodd" fill="#634F45" d="M1886.435,1041.958c0,2.541,0,5.08,0,7.621
		c-14.491-2.227-24.419,5.266-33.778,15.04c-27.461,28.679-48.341,62.034-68.54,95.84c-11.482,19.218-21.186,39.334-26.646,61.268
		c-1.772,7.123-2.165,13.891,0.797,20.838c1.259,2.951,1.662,6.389,1.858,9.642c0.234,3.89-0.929,6.685-5.821,4.497
		c-4.4-1.969-8.438-0.576-12.273,1.776c-7.376,4.524-14.348,9.588-20.864,15.3c-20.101,17.622-38.429,36.979-55.629,57.392
		c-51.434,61.033-87.552,129.856-105.44,207.936c-3.052,13.313-4.727,26.425,0.413,39.646c1.46,3.757,1.954,7.889,1.532,12.012
		c-0.437,4.231-2.135,7.046-6.908,5.104c-6.682-2.721-12.412-0.374-18.042,2.88c-14.582,8.426-28.257,18.141-40.034,30.198
		c-24.854,25.444-47.675,52.73-70.915,79.618c-9.294,10.752-17.055,22.767-23.817,35.327c-3.637,6.756-2.922,8.121,4.724,9.38
		c11.679,1.922,22.582,5.838,32.571,12.224c3.017,1.929,5.836,4.102,7.875,7.091c2.091,3.064,3.59,6.393,1.111,9.858
		c-2.495,3.489-6.183,3.393-9.634,1.925c-5.367-2.284-10.54-5.019-15.834-7.48c-1.612-0.75-3.144-2.283-5.68-1.218
		c2.882,4.059,5.501,7.781,8.155,11.48c6.516,9.076,13.378,17.959,17.184,28.643c1.238,3.477,1.684,7.059-1.945,9.613
		c-3.686,2.594-7.347,1.926-10.459-0.869c-2.626-2.359-4.922-5.115-7.165-7.861c-6.984-8.541-13.872-17.16-20.939-25.927
		c-2.071,2.511-0.937,4.239-0.823,5.921c0.698,10.383,1.825,20.791-1.055,31.031c-0.902,3.209-2.184,6.6-6.289,6.641
		c-4.328,0.045-6.23-3.258-7.098-6.805c-0.772-3.16-0.604-6.537-1.025-9.797c-1.26-9.719-0.432-19.812-4.688-30.246
		c-1.155,2.039-1.749,2.846-2.104,3.748c-4.076,10.398-8.457,20.693-12.113,31.24c-20.904,60.301-33.371,122.342-38.177,185.967
		c-0.872,11.564-5.055,13.85-14.634,7.41c-32.101-21.572-66.834-38.586-99.926-58.42c-34.058-20.416-68.839-39.246-106.689-51.789
		c-2.234-0.74-4.894-3.211-6.94-0.602c-1.928,2.455,0.727,4.729,1.929,6.795c7.758,13.342,13.829,27.109,13.094,43.084
		c-0.475,10.303-3.138,15.328-8.911,15.244c-5.509-0.08-8.196-4.738-8.838-14.629c-0.397-6.143-0.44-12.459-5.054-19.254
		c-3.494,11.189-6.828,21.004-12.107,29.965c-2.862,4.855-5.863,9.572-11.41,11.816c-2.97,1.199-5.949,1.648-8.556-0.783
		c-2.78-2.592-1.9-5.498-0.463-8.367c1.96-3.912,3.953-7.807,5.932-11.709c-8.876,4.623-15.621,11.357-24.435,14.881
		c-4.649,1.859-9.698,3.17-13.08-1.838c-3.397-5.033-0.166-9.131,3.246-12.791c1.029-1.104,2.184-2.213,3.5-2.908
		c17.604-9.311,29.511-24.59,41.605-39.654c7.688-9.576,5.313-17.016-6.728-20.154c-24.394-6.361-49.218-10.529-74.422-10.979
		c-41.633-0.738-83.293-1.127-124.817,3.053c-20.303,2.045-40.535,4.924-58.371,15.643c-7.65,4.596-13.694,3.875-21.12-0.213
		c-42.869-23.6-88.285-35.578-137.626-29.412c-45.936,5.738-89.221,19.254-129.202,42.842c-4.853,2.863-9.197,6.305-12.611,10.865
		c-7.654,10.232-8.439,10.383-19.765,3.939c-2.203-1.252-4.405-2.561-6.406-4.104c-10.104-7.799-21.558-12.461-34.112-14.088
		c-23.008-2.98-46.152-1.303-69.239-1.496c-12.723-0.105-25.348,1.141-37.872,3.404c-5.481,0.988-10.216,2.967-12.732,8.457
		c-1.591,3.471-3.099,7.277-7.992,6.85c-5.122-0.449-7.174-4.26-8.736-8.455c-0.706-1.895-1.271-3.844-1.898-5.77
		c0-14.225,0-28.451,0-42.676c1.7-8.965,3.039-18.02,5.161-26.887c13.18-55.069,36.502-106.05,64.216-155.037
		c32.649-57.712,70.816-111.469,118.771-157.706c37.188-35.854,77.876-67.531,118.998-98.667
		c22.278-16.869,44.062-34.354,65.18-52.666c3.024-2.622,6.524-5.512,10.953-3.188c4.53,2.378,3.719,6.599,3.087,10.748
		c-1.345,8.832,1.787,16.084,8.725,21.468c5.004,3.885,10.342,7.364,15.689,10.776c39.2,25.003,78.343,50.082,113.38,80.922
		c0.96,0.845,1.868,2.705,3.987,1.095c-5.216-17.741-9.142-35.805-11.064-54.286c-3.756-36.088-1.231-71.476,11.307-105.809
		c1.931-5.285,4.398-10.26,8.092-14.57c7.006-8.18,14.012-9.518,23.658-4.485c8.398,4.379,14.128,11.451,19.246,19.121
		c9.323,13.969,17.081,28.834,24.896,43.664c15.537,29.497,34.452,56.902,52.612,84.771c1.261,1.936,2.443,5.237,5.592,3.984
		c2.519-1.005,1.519-4.029,1.647-6.202c0.634-10.643,0.966-21.306,1.757-31.935c1.411-18.979,2.981-37.918,7.214-56.583
		c10.859-47.872,35.468-88.388,67.249-124.787c17.583-20.137,38.497-20.728,59.135-3.627c8.16,6.762,14.034,15.304,19,24.544
		c14.977,27.872,18.389,58.443,19.861,89.209c2.396,50.075-7.716,98.485-21.341,146.311c-0.709,2.49-2.273,4.977-0.607,8.308
		c3.089-1.462,5.85-2.657,8.511-4.043c23.016-11.987,46.763-22.343,71.267-30.813c9.108-3.147,14.047-8.384,16.534-17.769
		c12.424-46.874,25.14-93.673,38.208-140.372c10.264-36.674,21.347-73.119,27.759-110.758c0.839-4.929,1.349-9.2-4.818-10.838
		c-2.695-0.716-5.769-1.353-5.941-4.91c-0.168-3.444,3.005-4.3,5.22-5.9c7.801-5.638,16.776-10.243,23.097-17.235
		c29.243-32.349,64.142-56.877,102.762-76.387c86.428-43.66,179.104-66.639,274.045-81.76c20.263-3.228,40.771-4.913,61.166-7.308
		c22.862,0,45.724,0,68.586,0c16.556,3.292,33.206,6.065,48.992,12.546C1874.012,1029.117,1881.344,1033.975,1886.435,1041.958z
		 M1054.507,1824.609c-104.197-21.094-174.342-119.092-186.536-222.638C843.971,1694.972,932.806,1828.806,1054.507,1824.609z"/>
	<path fill-rule="evenodd" clip-rule="evenodd" fill="#634F45" d="M1878.684,1032.812c-9.015-7.331-19.956-10.591-30.918-13.496
		c-44.809-11.876-92.043-8.576-137.772-2.778c-32.396,4.111-64.5,9.925-96.424,16.744c-65.053,13.897-128.301,33.269-188.498,61.98
		c-40.006,19.083-77.137,42.341-107.914,74.635c-9.641,10.114-20.205,18.806-32.037,26.087c-2.34,1.441-4.509,3.002-4.046,6.252
		c0.426,2.984,2.659,4.022,5.172,4.713c5.022,1.382,6.292,4.704,5.417,9.571c-2.384,13.281-5.026,26.506-8.316,39.592
		c-11.743,46.691-25.856,92.733-38.182,139.267c-6.354,23.989-12.926,47.922-19.279,71.913c-2.182,8.238-6.398,14.761-14.658,17.688
		c-25.637,9.086-50.583,19.724-74.688,32.34c-1.896,0.992-4.281,3.362-6.258,1.483c-1.586-1.509,0.255-4.058,0.833-6.067
		c15.096-52.492,25.156-105.586,20.398-160.632c-1.743-20.168-4.569-40.05-11.821-59.052c-5.385-14.11-12.273-27.405-23.33-38.035
		c-20.972-20.163-45.042-19.845-62.938,0.82c-12.12,13.994-23.413,28.623-33.264,44.33c-17.983,28.673-30.868,59.333-36.496,92.869
		c-4.282,25.513-5.458,51.282-6.653,77.056c-0.081,1.746,0.503,4-1.831,4.681c-2.283,0.666-3.154-1.401-4.127-2.891
		c-20.332-31.091-41.259-61.803-58.118-95.038c-7.081-13.959-14.75-27.643-24.289-40.153c-4.628-6.07-10.246-10.918-17.312-13.965
		c-7.509-3.237-13.854-2.032-19.749,3.584c-5.227,4.979-8.162,11.265-10.598,17.884c-8.134,22.106-11.961,45.055-12.645,68.483
		c-0.837,28.662,3.169,56.789,10.824,84.407c0.496,1.792,1.431,3.563,0.606,5.892c-1.429-1.034-2.561-1.726-3.546-2.585
		c-26.191-22.835-54.648-42.576-83.749-61.45c-13.837-8.975-27.614-18.041-41.398-27.096c-8.546-5.615-11.957-13.566-10.501-23.629
		c0.575-3.981,0.68-7.776-3.514-9.999c-4.263-2.259-7.643-0.314-10.879,2.42c-9.036,7.631-18.033,15.313-27.194,22.793
		c-37.167,30.351-76.421,58.049-113.075,89.058c-27.25,23.053-53.491,47.148-77.063,74.018
		c-31.881,36.338-59.004,76.036-83.043,117.902c-26.717,46.528-49.724,94.679-63.937,146.653
		c-7.751,28.346-19.176,64.635-5.719,92.975c1.678,3.534,4.436,5.886,8.548,5.94c3.918,0.053,6.007-2.526,7.347-5.787
		c2.257-5.493,6.576-8.184,12.158-9.228c9.338-1.745,18.759-3.2,28.238-3.337c20.657-0.3,41.322-0.231,61.982-0.112
		c19.608,0.114,38.04,4.127,53.686,16.978c2.034,1.671,4.549,2.763,6.869,4.075c7.694,4.351,10.355,4.065,15.646-3.03
		c5.118-6.865,11.634-11.734,18.978-15.896c26.721-15.144,55.07-26.041,84.938-33.054c27.842-6.536,55.935-10.708,84.627-7.847
		c32.831,3.272,63.285,14.031,91.993,29.988c7.66,4.257,15.038,4.73,22.621-0.073c6.522-4.132,13.679-6.923,21.091-8.96
		c25.757-7.077,52.288-7.975,78.708-9.008c21.771-0.852,43.602-0.11,65.401-0.437c30.839-0.462,61.161,2.961,90.927,11.102
		c6.444,1.763,8.384,5.75,6.278,12.072c-2.227,6.694-6.938,11.699-11.176,17.023c-16.347,20.542-33.513,40.193-57.113,52.944
		c-3.869,2.092-6.345,5.795-9.046,9.199c-3.487,4.396-4.16,9.166-1.536,13.94c3.142,5.717,8.373,7.693,14.927,6.325
		c6.794-1.419,12.82-4.581,18.537-8.387c6.697-4.461,13.369-8.961,20.053-13.444c-1.637,5.86-4.179,10.846-6.405,15.968
		c-2.1,4.836-1.131,9.107,3.112,12.492c3.911,3.12,8.074,2.581,12.176,0.695c6.08-2.793,10.582-7.441,14.29-12.905
		c5.928-8.734,10.401-18.214,14.103-28.059c2.366-6.293,4.493-12.675,7.189-20.333c3.915,7.404,5.388,13.897,5.811,20.752
		c0.43,6.954,0.426,13.979,3.446,20.542c2.447,5.317,6.275,7.779,12.24,7.481c5.766-0.287,8.682-3.757,10.567-8.48
		c3.823-9.574,4.086-19.702,2.411-29.549c-3.249-19.09-10.761-36.669-21.243-52.967c-0.748-1.163-2.158-2.17-1.571-3.912
		c0.365-0.083,0.72-0.288,0.983-0.205c2.539,0.804,5.081,1.603,7.586,2.502c33.564,12.041,64.784,28.83,95.276,47.088
		c34.871,20.879,71.34,39.018,105.283,61.501c7.434,4.923,12.354,1.931,13.174-7.577c1.115-12.935,2.355-25.85,3.924-38.742
		c6.49-53.288,18.72-105.203,36.943-155.699c1.377-3.814,2.5-7.789,4.85-11.227c1.705,0.93,1.771,2.323,1.977,3.601
		c1.564,9.705,2.29,19.497,3.22,29.273c0.75,7.896,0.032,16.054,3.378,23.59c1.861,4.191,5.192,6.642,9.648,6.884
		c4.527,0.245,7.445-2.522,9.063-6.575c0.859-2.153,1.584-4.396,2.069-6.661c3.216-15.009,2.418-30.092,0.689-45.184
		c-0.163-1.427-1.119-3.239,0.692-3.998c1.484-0.621,2.248,1.133,3.031,2.097c5.992,7.362,11.854,14.833,17.888,22.161
		c6.558,7.963,12.556,16.434,20.333,23.319c5.226,4.627,10.941,4.893,16.445,1.035c4.726-3.312,5.734-7.499,3.394-14.198
		c-2.427-6.944-5.706-13.478-9.452-19.801c-7.32-12.354-16.563-23.375-24.432-35.347c-0.834-1.271-2.355-2.305-1.885-4.167
		c1.76-0.201,2.863,0.611,4.059,1.174c8.585,4.038,17.079,8.295,25.804,12.008c5.72,2.434,10.298,0.948,13.863-3.468
		c3.507-4.341,3.589-7.521,0.204-13.254c-3.471-5.877-8.515-10.128-14.193-13.782c-15.692-10.1-33.102-15.391-51.268-18.703
		c-5.232-0.954-5.705-2.156-3.182-6.573c5.05-8.843,10.57-17.377,17.162-25.155c19.603-23.129,39.352-46.129,59.777-68.54
		c16.018-17.574,33.295-33.604,54.402-45.06c5.493-2.981,10.91-4.633,17.18-2.632c4.501,1.438,7-0.418,7.445-5.199
		c0.356-3.817,0.449-7.699-0.996-11.361c-4.916-12.456-4.215-25.122-1.381-37.826c12.504-56.035,34.516-108.071,65.73-156.246
		c19.181-29.602,41.205-56.956,65.517-82.445c14.835-15.553,30.118-30.69,48.229-42.581c4.727-3.104,9.452-5.494,15.409-3.25
		c3.485,1.313,5.378-0.495,5.56-4.143c0.203-4.063-0.604-7.939-1.988-11.74c-1.796-4.937-2.351-9.921-1.354-15.203
		c2.023-10.711,5.503-20.943,9.721-30.925c11.281-26.695,27.188-50.786,42.875-74.957c13.719-21.139,28.908-41.185,46.909-58.948
		c7.505-7.406,16.126-12.371,27.097-11.729c2.894,0.17,3.296-1.488,3.44-3.696
		C1887.485,1039.704,1882.898,1036.24,1878.684,1032.812z M939.315,1569.392c11.046,0,20,8.954,20,20c0,11.045-8.954,20-20,20
		s-20-8.955-20-20C919.315,1578.346,928.27,1569.392,939.315,1569.392z M867.258,1608.391
		c20.339,103.751,71.827,182.288,176.475,215.245C938.476,1825.546,847.454,1702.135,867.258,1608.391z M1036.028,1609.392
		c-11.046,0-20-8.955-20-20c0-11.046,8.954-20,20-20s20,8.954,20,20C1056.028,1600.437,1047.074,1609.392,1036.028,1609.392z"/>
</g>
<g id="Bat_Association_xA0_影像_1_">
	<text transform="matrix(1 0 0 1 287.5771 582.7041)" fill="#634F45" font-family="'MicrosoftYaHei-Bold'" font-size="200">Bat Association</text>
	<text transform="matrix(1 0 0 1 495.4512 903.7158)"><tspan x="0" y="0" fill="#634F45" font-family="'MicrosoftYaHei-Bold'" font-size="200">of </tspan><tspan x="272.07" y="0" fill="#634F45" font-family="'MicrosoftYaHei-Bold'" font-size="250">Taiwan</tspan></text>
</g>
</svg>
