<?xml version="1.0" encoding="utf-8"?>
<!-- Generator: Adobe Illustrator 16.0.0, SVG Export Plug-In . SVG Version: 6.00 Build 0)  -->
<!DOCTYPE svg PUBLIC "-//W3C//DTD SVG 1.1//EN" "http://www.w3.org/Graphics/SVG/1.1/DTD/svg11.dtd">
<svg version="1.1" id="圖層_1" xmlns="http://www.w3.org/2000/svg" xmlns:xlink="http://www.w3.org/1999/xlink" x="0px" y="0px"
	 width="210px" height="106.25px" viewBox="387.5 87.5 210 106.25" enable-background="new 387.5 87.5 210 106.25"
	 xml:space="preserve">
<path fill="#514B44" d="M501.96,185.48c-0.832,0-1.664,0-2.497,0c-1.061-0.408-2.134-0.789-3.181-1.232
	c-3.397-1.441-6.356-3.582-9.257-5.823c-2.147-1.657-4.229-3.419-6.577-4.795c-1.921-1.125-4-1.626-6.243-1.249
	c-1.633,0.274-3.077,0.984-4.435,1.895c-3.076,2.064-5.483,4.813-7.795,7.658c-1.006,1.237-1.006,1.246-2.208,0.224
	c-4.042-3.439-8.719-5.246-14.021-5.284c-3.693-0.025-7.253,0.77-10.692,2.122c-2.577,1.014-5.005,2.315-7.38,3.724
	c-0.507,0.301-0.834,0.256-1.099-0.275c-0.136-0.272-0.32-0.522-0.458-0.797c-0.831-1.641-1.646-3.287-2.482-4.926
	c-1.589-3.113-3.38-6.087-5.942-8.525c-3.522-3.354-7.763-4.827-12.564-4.719c-3.22,0.072-6.325,0.819-9.357,1.894
	c-0.944,0.335-1.86,0.769-2.861,0.932c0-0.92,0-1.84,0-2.759c0.057-0.211,0.127-0.42,0.169-0.634
	c0.714-3.729,2.117-7.216,3.785-10.604c4.353-8.848,9.804-16.974,16.112-24.538c2.317-2.78,4.782-5.413,7.632-7.666
	c1.581-1.249,3.322-1.639,5.301-1.233c7.086,1.453,14.018,3.47,20.898,5.674c9.051,2.898,17.985,6.121,26.841,9.568
	c0.143,0.056,0.282,0.118,0.429,0.164c0.142,0.044,0.29,0.072,0.585,0.144c-2.056-1.772-3.685-3.681-5-5.852
	c-2.389-3.944-3.756-8.215-4.157-12.811c-0.333-3.806,0.025-7.521,1.34-11.118c0.88-2.408,3.254-3.213,5.451-1.892
	c0.66,0.397,1.256,0.876,1.807,1.414c1.342,1.308,2.472,2.779,3.418,4.392c0.511,0.869,0.783,0.98,1.706,0.641
	c0.351-0.128,0.694-0.27,1.044-0.393c3.245-1.13,6.567-1.864,10.019-1.895c0.589-0.005,0.894-0.204,0.931-0.817
	c0.026-0.435,0.12-0.866,0.199-1.296c0.401-2.182,0.866-4.345,2.146-6.222c1.521-2.234,3.857-2.439,5.796-0.559
	c7.928,7.688,9.763,20.701,5.685,29.694c-0.074,0.163-0.232,0.314-0.148,0.57c1.437-1.388,2.854-2.751,4.265-4.123
	c6.825-6.646,13.803-13.128,21.128-19.22c4.706-3.913,9.22-8.105,14.764-10.891c0.657,0,1.314,0,1.972,0
	c1.845,0.389,3.644,0.925,5.396,1.628c7.328,2.943,14.12,6.87,20.69,11.21c5.399,3.568,10.56,7.437,15.084,12.095
	c1.762,1.813,3.361,3.75,4.444,6.061c0.441,0.94,0.415,0.954-0.597,0.978c-3.026,0.072-6.021,0.374-8.956,1.175
	c-7.021,1.917-11.521,6.279-13.121,13.475c-0.567,2.554-0.72,5.151-0.832,7.753c-0.069,1.618-0.105,3.237-0.21,4.853
	c-0.067,1.073-0.276,1.196-1.318,1.037c-4.178-0.641-8.357-0.789-12.541-0.054c-4.306,0.758-8.246,2.323-11.577,5.233
	c-2.383,2.082-4.125,4.634-5.424,7.498c-0.238,0.523-0.508,0.668-0.992,0.33c-0.125-0.088-0.268-0.149-0.402-0.222
	c-3.308-1.717-6.65-3.349-10.338-4.104c-2.454-0.504-4.865-0.563-7.172,0.635c-1.628,0.845-2.772,2.184-3.792,3.65
	c-1.466,2.109-2.586,4.418-3.797,6.674c-1.463,2.725-2.991,5.408-5.095,7.701C505.135,183.109,503.87,184.682,501.96,185.48z
	 M484.982,119.208c-0.03-1.189-0.39-2.236-1.337-3.018c-1.447-1.195-3.503-0.734-4.164,0.928c-0.246,0.618-0.188,0.703,0.461,0.668
	c0.926-0.049,1.365,0.245,1.713,1.103c0.438,1.086,0.104,2.013-0.567,2.87c-0.233,0.298-0.333,0.541,0.144,0.657
	c1.547,0.375,2.74,0.066,3.388-1.417C484.866,120.433,484.983,119.832,484.982,119.208z M495.628,116.909
	c-0.044-1.601-0.645-2.896-2.119-3.657c-1.322-0.683-2.786-0.048-3.223,1.343c-0.152,0.483-0.1,0.691,0.496,0.599
	c0.985-0.154,1.453,0.129,1.879,1.035c0.489,1.037,0.348,2.017-0.376,2.881c-0.395,0.47-0.244,0.657,0.253,0.813
	c1.088,0.342,2.204-0.131,2.683-1.166C495.491,118.173,495.644,117.561,495.628,116.909z"/>
</svg>
