<?xml version="1.0" encoding="utf-8"?>
<!-- Generator: Adobe Illustrator 16.0.0, SVG Export Plug-In . SVG Version: 6.00 Build 0)  -->
<!DOCTYPE svg PUBLIC "-//W3C//DTD SVG 1.1//EN" "http://www.w3.org/Graphics/SVG/1.1/DTD/svg11.dtd">
<svg version="1.1" id="圖層_1" xmlns="http://www.w3.org/2000/svg" xmlns:xlink="http://www.w3.org/1999/xlink" x="0px" y="0px"
	 width="191px" height="92px" viewBox="9.5 5.5 191 92" enable-background="new 9.5 5.5 191 92" xml:space="preserve">
<path fill="#514B44" d="M56.661,9.73c0.906,0,1.813,0,2.719,0c0.623,0.375,1.274,0.71,1.867,1.128
	c3.041,2.148,6.04,4.354,8.914,6.723c7.877,6.495,15.388,13.396,22.683,20.532c0.642,0.626,1.294,1.241,1.95,1.867
	c0.151-0.206,0.031-0.327-0.016-0.443c-1.608-4.068-2.074-8.264-1.385-12.581c0.673-4.229,2.109-8.151,4.77-11.559
	c0.728-0.932,1.466-1.863,2.42-2.575c1.631-1.215,3.382-0.948,4.601,0.677c0.153,0.206,0.294,0.419,0.434,0.633
	c1.137,1.744,1.587,3.714,1.87,5.736c0.175,1.253,0.281,1.37,1.558,1.399c1.144,0.024,2.28,0.132,3.406,0.332
	c1.944,0.345,3.806,0.989,5.678,1.606c0.996,0.33,1.135,0.264,1.701-0.587c0.523-0.787,1.063-1.563,1.631-2.318
	c0.862-1.139,1.845-2.157,3.125-2.839c0.936-0.499,1.904-0.74,2.95-0.344c1.209,0.455,1.767,1.451,2.138,2.589
	c1.247,3.823,1.447,7.72,0.767,11.668c-0.852,4.922-2.743,9.353-6.206,13.034c-0.429,0.455-0.857,0.912-1.277,1.36
	c0.173,0.044,0.34-0.081,0.516-0.149c9.212-3.586,18.534-6.873,27.985-9.784c4.874-1.501,9.764-2.949,14.794-3.862
	c1.611-0.292,3.155-0.168,4.483,0.895c1.386,1.106,2.737,2.257,3.957,3.55c5.945,6.312,10.986,13.29,15.206,20.86
	c2.053,3.683,4.036,7.405,5.242,11.475c0.33,1.111,0.575,2.25,0.858,3.375c0,0.828,0,1.654,0,2.482
	c-0.296,0.225-0.588,0.126-0.892,0.007c-2.948-1.145-5.953-2.049-9.131-2.28c-2.735-0.2-5.388,0.109-7.912,1.226
	c-2.949,1.305-5.204,3.43-7.038,6.041c-1.123,1.601-2.024,3.328-2.891,5.077c-0.734,1.481-1.465,2.967-2.299,4.396
	c-0.497,0.85-0.59,0.872-1.414,0.38c-0.239-0.141-0.473-0.284-0.711-0.426c-2.642-1.555-5.388-2.864-8.35-3.69
	c-4.278-1.192-8.562-1.474-12.854-0.067c-2.662,0.871-4.989,2.314-7.09,4.148c-0.593,0.517-0.732,0.513-1.25-0.083
	c-0.501-0.582-0.978-1.184-1.479-1.767c-1.879-2.188-3.836-4.284-6.296-5.847c-3.132-1.989-6.271-2.085-9.451-0.132
	c-1.429,0.879-2.786,1.856-4.119,2.869c-1.896,1.444-3.719,2.982-5.719,4.287c-2.411,1.573-4.982,2.784-7.804,3.418
	c-0.733,0.164-1.465,0.17-2.075-0.354c-1.793-1.541-3.573-3.098-4.983-5.02c-1.544-2.104-2.732-4.417-3.943-6.719
	c-1.056-2.004-2.077-4.029-3.582-5.755c-1.529-1.753-3.433-2.705-5.781-2.772c-2.354-0.07-4.556,0.558-6.722,1.377
	c-1.992,0.756-3.875,1.751-5.789,2.677c-0.724,0.35-0.886,0.293-1.224-0.443c-2.72-5.925-7.386-9.437-13.647-10.897
	c-4.313-1.005-8.669-0.923-13.024-0.234c-0.71,0.113-0.94-0.05-1.018-0.768c-0.074-0.684-0.123-1.373-0.136-2.062
	c-0.061-2.873-0.112-5.745-0.605-8.588C35.592,45.794,31.623,41.525,25,39.652c-2.946-0.833-5.959-1.061-9-1.086
	c0-0.237,0-0.473,0-0.71c1.707-3.334,4.242-5.976,7.003-8.445c4.817-4.308,10.122-7.936,15.637-11.267
	c4.62-2.792,9.35-5.372,14.432-7.239C54.257,10.474,55.465,10.121,56.661,9.73z M113.872,32.986
	c0.005,0.821,0.146,1.481,0.394,1.965c0.518,1.011,1.937,1.359,2.841,0.7c0.345-0.251,0.506-0.505,0.061-0.821
	c-0.319-0.226-0.498-0.555-0.578-0.931c-0.186-0.868,0.347-1.912,1.185-2.193c0.547-0.185,0.544-0.441,0.305-0.872
	c-0.781-1.387-2.518-1.492-3.445-0.198C114.103,31.38,113.834,32.206,113.872,32.986z M103.831,31.467
	c0.01,0.232,0.007,0.431,0.031,0.625c0.193,1.536,2.124,2.529,3.364,1.725c0.21-0.136,0.636-0.302,0.079-0.596
	c-0.926-0.488-1.227-1.036-1.046-1.815c0.247-1.068,1.031-1.78,1.978-1.794c0.521-0.009,0.571-0.104,0.296-0.575
	c-0.773-1.333-2.659-1.526-3.672-0.362C104.162,29.48,103.878,30.451,103.831,31.467z"/>
</svg>
