<?xml version="1.0" encoding="utf-8"?>
<!-- Generator: Adobe Illustrator 16.0.0, SVG Export Plug-In . SVG Version: 6.00 Build 0)  -->
<!DOCTYPE svg PUBLIC "-//W3C//DTD SVG 1.1//EN" "http://www.w3.org/Graphics/SVG/1.1/DTD/svg11.dtd">
<svg version="1.1" id="圖層_1" xmlns="http://www.w3.org/2000/svg" xmlns:xlink="http://www.w3.org/1999/xlink" x="0px" y="0px"
	 width="203px" height="150px" viewBox="0 0 203 150" enable-background="new 0 0 203 150" xml:space="preserve">
<path fill-rule="evenodd" clip-rule="evenodd" fill="#DDCBC1" d="M125.04,8.24c3.359,0,6.72,0,10.08,0
	c0.675,0.326,1.412,0.214,2.122,0.297c17.183,2.026,31.759,9.231,43.553,21.945c8.867,9.559,14.479,20.781,16.996,33.554
	c0.478,2.424,0.783,4.882,1.169,7.323c0,3.92,0,7.841,0,11.761c-0.286,0.64-0.224,1.333-0.31,2.004
	c-2.298,17.946-10.12,33.001-23.96,44.688c-15.602,13.177-33.742,18.445-53.946,15.792c-17.715-2.327-32.441-10.549-43.82-24.349
	C64.293,105.938,59.153,88.231,61.581,68.55c2.116-17.147,9.834-31.53,22.768-43.034c9.811-8.725,21.234-14.141,34.176-16.338
	C120.687,8.81,122.867,8.55,125.04,8.24z"/>
<path fill-rule="evenodd" clip-rule="evenodd" fill="#DDCBC1" d="M5.04,123.44c0.17-0.615,0.359-1.225,0.508-1.845
	c2.281-9.471,10.868-15.895,20.607-15.409c9.53,0.475,17.495,7.898,18.762,17.488c1.043,7.901-2.931,16.021-9.701,19.825
	c-7.475,4.198-16.281,3.553-22.711-1.65c-3.717-3.007-6.059-6.848-7.075-11.51c-0.102-0.466-0.259-0.92-0.39-1.38
	C5.04,127.12,5.04,125.28,5.04,123.44z"/>
</svg>
